<svg xmlns="http://www.w3.org/2000/svg" enable-background="new 0 0 48 48" viewBox="0 0 48 48" id="Dish"><path d="M6,35.5h36c0.55,0,1-0.45,1-1s-0.45-1-1-1h-1.05c-0.42-7.22-5.35-13.24-12.02-15.27C28.97,17.99,29,17.75,29,17.5
		c0-2.76-2.24-5-5-5s-5,2.24-5,5c0,0.25,0.03,0.49,0.07,0.73C12.4,20.26,7.47,26.28,7.05,33.5H6c-0.55,0-1,0.45-1,1
		S5.45,35.5,6,35.5z M24,14.5c1.65,0,3,1.35,3,3c0,0.09-0.02,0.18-0.03,0.28c-0.97-0.17-1.96-0.28-2.97-0.28s-2.01,0.11-2.97,0.28
		C21.02,17.68,21,17.59,21,17.5C21,15.85,22.35,14.5,24,14.5z M24,19.5c7.93,0,14.43,6.2,14.95,14H9.05
		C9.57,25.7,16.07,19.5,24,19.5z" fill="#039cff" class="color000000 svgShape"></path><path d="M26,21.5c-0.55,0-1,0.45-1,1s0.45,1,1,1c4.41,0,8,3.59,8,8c0,0.55,0.45,1,1,1s1-0.45,1-1C36,25.99,31.51,21.5,26,21.5z" fill="#039cff" class="color000000 svgShape"></path></svg>