<svg width="100" height="99" viewBox="0 0 100 99" fill="none" xmlns="http://www.w3.org/2000/svg">
<path d="M50 26.0709C50 38.7753 39.7208 49.0743 27.0408 49.0743H4.08167V26.0709C4.08167 13.3664 14.3608 3.06738 27.0408 3.06738C39.7208 3.06738 50 13.3664 50 26.0709Z" fill="#1798CF"/>
<path d="M50 72.0777C50 59.3732 60.2792 49.0742 72.9592 49.0742H95.9184V72.0777C95.9184 84.7822 85.6392 95.0812 72.9592 95.0812C60.2792 95.0812 50 84.7822 50 72.0777Z" fill="#1798CF"/>
<path d="M4.08167 72.0777C4.08167 84.7822 14.3608 95.0812 27.0408 95.0812H50V72.0777C50 59.3732 39.7208 49.0742 27.0408 49.0742C14.3608 49.0742 4.08167 59.3732 4.08167 72.0777Z" fill="#1798CF"/>
<path d="M95.9184 26.0709C95.9184 13.3664 85.6392 3.06738 72.9592 3.06738H50V26.0709C50 38.7753 60.2792 49.0743 72.9592 49.0743C85.6392 49.0743 95.9184 38.7753 95.9184 26.0709Z" fill="#1798CF"/>
</svg>
